<?xml version="1.0" encoding="UTF-8" standalone="no"?>
<!-- Created with Inkscape (http://www.inkscape.org/) -->

<svg
   xmlns:dc="http://purl.org/dc/elements/1.1/"
   xmlns:cc="http://creativecommons.org/ns#"
   xmlns:rdf="http://www.w3.org/1999/02/22-rdf-syntax-ns#"
   xmlns:svg="http://www.w3.org/2000/svg"
   xmlns="http://www.w3.org/2000/svg"
   xmlns:sodipodi="http://sodipodi.sourceforge.net/DTD/sodipodi-0.dtd"
   xmlns:inkscape="http://www.inkscape.org/namespaces/inkscape"
   width="1998"
   height="1080"
   viewBox="0 0 528.63751 285.74999"
   version="1.1"
   id="svg8"
   inkscape:version="0.92.2 (5c3e80d, 2017-08-06)"
   sodipodi:docname="kof19.svg"
   inkscape:export-filename="/home/kof/kof19.png"
   inkscape:export-xdpi="96"
   inkscape:export-ydpi="96">
  <defs
     id="defs2">
    <filter
       style="color-interpolation-filters:sRGB;"
       inkscape:label="Invert"
       id="filter969">
      <feColorMatrix
         type="hueRotate"
         values="180"
         result="color1"
         id="feColorMatrix965" />
      <feColorMatrix
         values="0 -1 0 0 1 -1 0 0 0 1 0 0 -1 0 1 -0.21 -0.72 -0.07 2 0 "
         result="color2"
         id="feColorMatrix967" />
    </filter>
  </defs>
  <sodipodi:namedview
     id="base"
     pagecolor="#050505"
     bordercolor="#666666"
     borderopacity="1.0"
     inkscape:pageopacity="1"
     inkscape:pageshadow="2"
     inkscape:zoom="5.6"
     inkscape:cx="1002.1295"
     inkscape:cy="603.81544"
     inkscape:document-units="mm"
     inkscape:current-layer="g846"
     showgrid="false"
     units="px"
     showguides="true"
     inkscape:guide-bbox="true"
     inkscape:window-width="1920"
     inkscape:window-height="1043"
     inkscape:window-x="1920"
     inkscape:window-y="0"
     inkscape:window-maximized="1" />
  <metadata
     id="metadata5">
    <rdf:RDF>
      <cc:Work
         rdf:about="">
        <dc:format>image/svg+xml</dc:format>
        <dc:type
           rdf:resource="http://purl.org/dc/dcmitype/StillImage" />
        <dc:title />
      </cc:Work>
    </rdf:RDF>
  </metadata>
  <g
     inkscape:label="Layer 1"
     inkscape:groupmode="layer"
     id="layer1"
     transform="translate(0,-11.25001)">
    <g
       id="g827"
       transform="matrix(1.2560866,0,0,1.2560866,-12.900864,-46.876833)"
       style="stroke-width:0.79612345">
      <g
         id="g846"
         transform="translate(2.8725238,-8.5111811)">
        <g
           aria-label="kof "
           style="font-style:normal;font-variant:normal;font-weight:normal;font-stretch:normal;font-size:10.58333302px;line-height:125%;font-family:Calluna;-inkscape-font-specification:'Calluna, Normal';font-variant-ligatures:normal;font-variant-caps:normal;font-variant-numeric:normal;font-feature-settings:normal;text-align:start;letter-spacing:0px;word-spacing:0px;writing-mode:lr-tb;text-anchor:start;fill:#e6e6e6;fill-opacity:1;stroke:none;stroke-width:0.21064098px;stroke-linecap:butt;stroke-linejoin:miter;stroke-opacity:1"
           id="text817">
          <path
             d="m 210.37019,159.67682 2.27541,-0.0635 0.0423,-0.26459 -0.84667,-0.0952 c 0,0 0.0529,-0.254 0.0529,-0.5715 v -1.51341 h 0.127 l 1.57691,1.778 c 0.29634,0.34925 0.43392,0.73025 0.43392,0.73025 l 1.524,-0.0317 0.0423,-0.3175 -0.11641,-0.0106 c -0.39159,-0.0317 -0.48684,-0.11641 -0.9525,-0.62441 l -1.56634,-1.69334 c -0.0741,-0.0741 -0.16933,-0.21166 -0.16933,-0.21166 v -0.10584 l 1.22767,-1.04775 c 0.49741,-0.42333 1.11125,-0.58208 1.11125,-0.58208 l -0.0529,-0.16933 h -1.93675 v 0.26458 c 0.23283,0.0635 0.34925,0.13758 0.34925,0.26458 0,0.1905 -0.23283,0.35984 -0.40217,0.508 l -1.06891,0.89959 h -0.127 v -3.75709 c 0,-0.81491 0.10583,-1.2065 0.10583,-1.2065 l -0.0318,-0.0317 c 0,0 -0.48683,0.21167 -1.70392,0.47625 v 0.28575 h 0.4445 c 0.30692,0 0.3175,0.26459 0.3175,0.71967 v 5.37633 c 0,0.381 -0.17991,0.635 -0.65616,0.68792 z"
             style="font-style:normal;font-variant:normal;font-weight:normal;font-stretch:normal;font-size:10.58333302px;font-family:Calluna;-inkscape-font-specification:'Calluna, Normal';font-variant-ligatures:normal;font-variant-caps:normal;font-variant-numeric:normal;font-feature-settings:normal;text-align:start;writing-mode:lr-tb;text-anchor:start;fill:#e6e6e6;stroke-width:0.21064098px"
             id="path853" />
          <path
             d="m 215.58165,157.36965 c 0,1.35467 0.8255,2.40242 2.31775,2.40242 1.69333,0 2.50825,-1.38642 2.50825,-2.69875 0,-1.30175 -0.79375,-2.31775 -2.33892,-2.31775 -1.79916,0 -2.48708,1.37583 -2.48708,2.61408 z m 0.97367,-0.24342 c 0,-1.016 0.41275,-2.01083 1.38641,-2.01083 1.06892,0 1.49225,1.2065 1.49225,2.25425 0,1.13242 -0.48683,2.04258 -1.38641,2.04258 -1.05834,0 -1.49225,-1.22766 -1.49225,-2.286 z"
             style="font-style:normal;font-variant:normal;font-weight:normal;font-stretch:normal;font-size:10.58333302px;font-family:Calluna;-inkscape-font-specification:'Calluna, Normal';font-variant-ligatures:normal;font-variant-caps:normal;font-variant-numeric:normal;font-feature-settings:normal;text-align:start;writing-mode:lr-tb;text-anchor:start;fill:#e6e6e6;stroke-width:0.21064098px"
             id="path855" />
          <path
             d="m 221.19346,159.67682 2.54,-0.0635 0.0423,-0.26459 -1.11125,-0.0952 c 0,0 0.0529,-0.254 0.0529,-0.5715 v -3.18558 l 0.10584,-0.10583 h 1.30175 l 0.0847,-0.508 h -1.49225 v -0.58209 c 0,-1.36525 0.254,-1.87325 0.79375,-1.87325 0.5715,0 0.80434,0.53975 1.18534,0.53975 0.28575,0 0.4445,-0.20108 0.4445,-0.40216 0,-0.4445 -0.62442,-0.62442 -1.13242,-0.62442 -1.37583,0 -2.159,1.06892 -2.159,2.64583 v 0.28575 l -0.66675,0.23284 v 0.3175 h 0.66675 v 3.25966 c 0,0.381 -0.17992,0.635 -0.65617,0.68792 z"
             style="font-style:normal;font-variant:normal;font-weight:normal;font-stretch:normal;font-size:10.58333302px;font-family:Calluna;-inkscape-font-specification:'Calluna, Normal';font-variant-ligatures:normal;font-variant-caps:normal;font-variant-numeric:normal;font-feature-settings:normal;text-align:start;writing-mode:lr-tb;text-anchor:start;fill:#e6e6e6;stroke-width:0.21064098px"
             id="path857" />
        </g>
        <g
           aria-label="19"
           style="font-style:normal;font-variant:normal;font-weight:normal;font-stretch:normal;font-size:6.98419952px;line-height:125%;font-family:Calluna;-inkscape-font-specification:'Calluna, Normal';font-variant-ligatures:normal;font-variant-caps:normal;font-variant-numeric:normal;font-feature-settings:normal;text-align:start;letter-spacing:0px;word-spacing:0px;writing-mode:lr-tb;text-anchor:start;fill:#e6e6e6;fill-opacity:1;stroke:none;stroke-width:0.21064098px;stroke-linecap:butt;stroke-linejoin:miter;stroke-opacity:1"
           id="text821">
          <path
             d="m 225.70838,154.09528 1.80193,-0.0349 0.0279,-0.20952 -0.71937,-0.0698 c 0,0 0.0349,-0.16064 0.0349,-0.37017 v -2.33272 l 0.6216,-0.0768 0.0279,-0.22349 h -1.82986 v 0.23746 c 0.49588,0 0.6216,0.0908 0.6216,0.41207 v 1.98351 c 0,0.32128 -0.13969,0.44699 -0.58668,0.44699 z"
             style="font-style:normal;font-variant:normal;font-weight:normal;font-stretch:normal;font-size:6.98419952px;font-family:Calluna;-inkscape-font-specification:'Calluna, Normal';font-variant-ligatures:normal;font-variant-caps:normal;font-variant-numeric:normal;font-feature-settings:normal;text-align:start;writing-mode:lr-tb;text-anchor:start;fill:#e6e6e6;stroke-width:0.21064098px"
             id="path848" />
          <path
             d="m 228.60246,155.17085 0.0419,0.24445 c 1.69017,0 2.49335,-1.38287 2.49335,-2.72384 0,-1.0616 -0.48889,-1.99748 -1.48065,-1.99748 -0.92191,0 -1.41779,0.8381 -1.41779,1.61335 0,0.73334 0.37016,1.40382 1.14541,1.40382 0.23048,0 0.44699,-0.0559 0.64953,-0.1746 l -0.0489,-0.2235 c -0.81715,0.32826 -1.13842,-0.5727 -1.13842,-1.22223 0,-0.55874 0.25841,-1.15938 0.71239,-1.15938 0.57968,0 0.94286,0.887 0.94286,1.83685 0,1.11747 -0.53778,2.31875 -1.8997,2.40256 z"
             style="font-style:normal;font-variant:normal;font-weight:normal;font-stretch:normal;font-size:6.98419952px;font-family:Calluna;-inkscape-font-specification:'Calluna, Normal';font-variant-ligatures:normal;font-variant-caps:normal;font-variant-numeric:normal;font-feature-settings:normal;text-align:start;writing-mode:lr-tb;text-anchor:start;fill:#e6e6e6;stroke-width:0.21064098px"
             id="path850" />
        </g>
        <path
           style="color:#000000;font-style:normal;font-variant:normal;font-weight:normal;font-stretch:normal;font-size:medium;line-height:normal;font-family:sans-serif;font-variant-ligatures:normal;font-variant-position:normal;font-variant-caps:normal;font-variant-numeric:normal;font-variant-alternates:normal;font-feature-settings:normal;text-indent:0;text-align:start;text-decoration:none;text-decoration-line:none;text-decoration-style:solid;text-decoration-color:#000000;letter-spacing:normal;word-spacing:normal;text-transform:none;writing-mode:lr-tb;direction:ltr;text-orientation:mixed;dominant-baseline:auto;baseline-shift:baseline;text-anchor:start;white-space:normal;shape-padding:0;clip-rule:nonzero;display:inline;overflow:visible;visibility:visible;opacity:1;isolation:auto;mix-blend-mode:normal;color-interpolation:sRGB;color-interpolation-filters:linearRGB;solid-color:#000000;solid-opacity:1;vector-effect:none;fill:#e6e6e6;fill-opacity:1;fill-rule:evenodd;stroke:none;stroke-width:0.5294221;stroke-linecap:round;stroke-linejoin:miter;stroke-miterlimit:4;stroke-dasharray:none;stroke-dashoffset:0;stroke-opacity:1;color-rendering:auto;image-rendering:auto;shape-rendering:auto;text-rendering:auto;enable-background:accumulate"
           d="m 210.60938,161.46875 a 0.26473752,0.26473752 0 1 0 0,0.5293 h 12.99804 a 0.26473752,0.26473752 0 1 0 0,-0.5293 z"
           id="path839"
           inkscape:connector-curvature="0" />
        <text
           id="text852"
           y="153.49258"
           x="210.07385"
           style="font-style:normal;font-variant:normal;font-weight:normal;font-stretch:normal;font-size:10.58333302px;line-height:125%;font-family:Calluna;-inkscape-font-specification:'Calluna, Normal';font-variant-ligatures:normal;font-variant-caps:normal;font-variant-numeric:normal;font-feature-settings:normal;text-align:start;letter-spacing:0px;word-spacing:0px;writing-mode:lr-tb;text-anchor:start;fill:#ffffff;fill-opacity:1;stroke:none;stroke-width:0.21064098px;stroke-linecap:butt;stroke-linejoin:miter;stroke-opacity:1"
           xml:space="preserve"><tspan
             style="font-style:normal;font-variant:normal;font-weight:normal;font-stretch:normal;font-size:10.58333302px;font-family:Calluna;-inkscape-font-specification:'Calluna, Normal';font-variant-ligatures:normal;font-variant-caps:normal;font-variant-numeric:normal;font-feature-settings:normal;text-align:start;writing-mode:lr-tb;text-anchor:start;fill:#ffffff;stroke-width:0.21064098px"
             y="162.75301"
             x="210.07385"
             sodipodi:role="line"
             id="tspan856" /></text>
      </g>
    </g>
  </g>
</svg>
